<svg width="24" height="25" viewBox="0 0 24 25" fill="none" xmlns="http://www.w3.org/2000/svg">
<g clip-path="url(#clip0_29_328)">
<path d="M11 18.5H13C13.55 18.5 14 18.05 14 17.5C14 16.95 13.55 16.5 13 16.5H11C10.45 16.5 10 16.95 10 17.5C10 18.05 10.45 18.5 11 18.5ZM3 7.5C3 8.05 3.45 8.5 4 8.5H20C20.55 8.5 21 8.05 21 7.5C21 6.95 20.55 6.5 20 6.5H4C3.45 6.5 3 6.95 3 7.5ZM7 13.5H17C17.55 13.5 18 13.05 18 12.5C18 11.95 17.55 11.5 17 11.5H7C6.45 11.5 6 11.95 6 12.5C6 13.05 6.45 13.5 7 13.5Z" fill="#2B2B2B"/>
</g>
<defs>
<clipPath id="clip0_29_328">
<rect width="24" height="24" fill="white" transform="translate(0 0.5)"/>
</clipPath>
</defs>
</svg>
